<svg width="22" height="22" viewBox="0 0 22 22" fill="none" xmlns="http://www.w3.org/2000/svg">
<g opacity="0.8" clip-path="url(#clip0_25_317)">
<path d="M15.5833 2.74999C15.8241 2.50924 16.1099 2.31826 16.4245 2.18796C16.739 2.05766 17.0762 1.9906 17.4167 1.9906C17.7572 1.9906 18.0943 2.05766 18.4089 2.18796C18.7234 2.31826 19.0093 2.50924 19.25 2.74999C19.4908 2.99075 19.6817 3.27657 19.812 3.59113C19.9423 3.9057 20.0094 4.24284 20.0094 4.58333C20.0094 4.92381 19.9423 5.26095 19.812 5.57552C19.6817 5.89008 19.4908 6.1759 19.25 6.41666L6.87501 18.7917L1.83334 20.1667L3.20834 15.125L15.5833 2.74999Z" stroke="#1E1E1E" stroke-width="2.5" stroke-linecap="round" stroke-linejoin="round"/>
</g>
<defs>
<clipPath id="clip0_25_317">
<rect width="22" height="22" fill="white"/>
</clipPath>
</defs>
</svg>
