<svg width="25" height="24" viewBox="0 0 25 24" fill="none" xmlns="http://www.w3.org/2000/svg">
<path d="M7.5 9V7H21.5V9H7.5ZM7.5 13V11H21.5V13H7.5ZM7.5 17V15H21.5V17H7.5ZM4.5 9C4.21667 9 3.97917 8.90417 3.7875 8.7125C3.59583 8.52083 3.5 8.28333 3.5 8C3.5 7.71667 3.59583 7.47917 3.7875 7.2875C3.97917 7.09583 4.21667 7 4.5 7C4.78333 7 5.02083 7.09583 5.2125 7.2875C5.40417 7.47917 5.5 7.71667 5.5 8C5.5 8.28333 5.40417 8.52083 5.2125 8.7125C5.02083 8.90417 4.78333 9 4.5 9ZM4.5 13C4.21667 13 3.97917 12.9042 3.7875 12.7125C3.59583 12.5208 3.5 12.2833 3.5 12C3.5 11.7167 3.59583 11.4792 3.7875 11.2875C3.97917 11.0958 4.21667 11 4.5 11C4.78333 11 5.02083 11.0958 5.2125 11.2875C5.40417 11.4792 5.5 11.7167 5.5 12C5.5 12.2833 5.40417 12.5208 5.2125 12.7125C5.02083 12.9042 4.78333 13 4.5 13ZM4.5 17C4.21667 17 3.97917 16.9042 3.7875 16.7125C3.59583 16.5208 3.5 16.2833 3.5 16C3.5 15.7167 3.59583 15.4792 3.7875 15.2875C3.97917 15.0958 4.21667 15 4.5 15C4.78333 15 5.02083 15.0958 5.2125 15.2875C5.40417 15.4792 5.5 15.7167 5.5 16C5.5 16.2833 5.40417 16.5208 5.2125 16.7125C5.02083 16.9042 4.78333 17 4.5 17Z" fill="#49454F"/>
</svg>
