<svg width="350" height="48" viewBox="0 0 350 48" fill="none" xmlns="http://www.w3.org/2000/svg">
<rect width="350" height="48" rx="8" fill="#0683DD"/>
<path d="M144.165 31V29.3594L151.622 18.6634H144.122V16.4545H154.889V18.0952L147.439 28.7912H154.932V31H144.165ZM160.507 31.2202C159.816 31.2202 159.193 31.0971 158.639 30.8509C158.09 30.5999 157.654 30.2306 157.332 29.7429C157.015 29.2552 156.857 28.6539 156.857 27.9389C156.857 27.3234 156.97 26.8144 157.197 26.4119C157.425 26.0095 157.735 25.6875 158.128 25.446C158.521 25.2045 158.964 25.0223 159.456 24.8991C159.953 24.7713 160.467 24.679 160.997 24.6222C161.636 24.5559 162.155 24.4967 162.553 24.4446C162.95 24.3878 163.239 24.3026 163.419 24.1889C163.604 24.0705 163.696 23.8883 163.696 23.642V23.5994C163.696 23.0644 163.537 22.6501 163.22 22.3565C162.903 22.063 162.446 21.9162 161.849 21.9162C161.22 21.9162 160.72 22.0535 160.351 22.3281C159.986 22.6027 159.74 22.9271 159.612 23.3011L157.212 22.9602C157.401 22.2973 157.714 21.7434 158.149 21.2983C158.585 20.8485 159.117 20.5123 159.747 20.2898C160.377 20.0625 161.073 19.9489 161.835 19.9489C162.361 19.9489 162.884 20.0104 163.405 20.1335C163.926 20.2566 164.402 20.4602 164.832 20.7443C165.263 21.0237 165.609 21.4048 165.869 21.8878C166.134 22.3707 166.267 22.9744 166.267 23.6989V31H163.795V29.5014H163.71C163.554 29.8045 163.334 30.0885 163.05 30.3537C162.77 30.6141 162.418 30.8248 161.991 30.9858C161.57 31.142 161.075 31.2202 160.507 31.2202ZM161.175 29.331C161.691 29.331 162.138 29.2292 162.517 29.0256C162.896 28.8172 163.187 28.5426 163.391 28.2017C163.599 27.8608 163.703 27.4891 163.703 27.0866V25.8011C163.623 25.8674 163.485 25.929 163.291 25.9858C163.102 26.0426 162.889 26.0923 162.652 26.1349C162.415 26.1776 162.181 26.2154 161.949 26.2486C161.717 26.2817 161.516 26.3101 161.345 26.3338C160.962 26.3859 160.618 26.4711 160.315 26.5895C160.012 26.7079 159.773 26.8736 159.598 27.0866C159.423 27.295 159.335 27.5649 159.335 27.8963C159.335 28.3698 159.508 28.7273 159.854 28.9688C160.199 29.2102 160.64 29.331 161.175 29.331ZM168.852 35.0909V20.0909H171.381V21.8949H171.53C171.662 21.6297 171.849 21.348 172.091 21.0497C172.332 20.7467 172.659 20.4886 173.071 20.2756C173.483 20.0578 174.009 19.9489 174.648 19.9489C175.491 19.9489 176.25 20.1643 176.928 20.5952C177.609 21.0213 178.149 21.6534 178.547 22.4915C178.949 23.3248 179.151 24.3475 179.151 25.5597C179.151 26.7576 178.954 27.7756 178.561 28.6136C178.168 29.4517 177.633 30.0909 176.956 30.5312C176.279 30.9716 175.512 31.1918 174.655 31.1918C174.03 31.1918 173.511 31.0876 173.099 30.8793C172.688 30.6709 172.356 30.42 172.105 30.1264C171.859 29.8281 171.667 29.5464 171.53 29.2812H171.423V35.0909H168.852ZM171.374 25.5455C171.374 26.2509 171.473 26.8688 171.672 27.3991C171.875 27.9295 172.167 28.3437 172.545 28.642C172.929 28.9356 173.393 29.0824 173.938 29.0824C174.506 29.0824 174.982 28.9309 175.365 28.6278C175.749 28.3201 176.037 27.901 176.232 27.3707C176.43 26.8357 176.53 26.2273 176.53 25.5455C176.53 24.8684 176.433 24.267 176.239 23.7415C176.045 23.2159 175.756 22.804 175.372 22.5057C174.989 22.2074 174.51 22.0582 173.938 22.0582C173.388 22.0582 172.922 22.2027 172.538 22.4915C172.155 22.7803 171.864 23.1851 171.665 23.706C171.471 24.2268 171.374 24.84 171.374 25.5455ZM181.352 31V20.0909H183.923V31H181.352ZM182.645 18.5426C182.238 18.5426 181.887 18.4077 181.594 18.1378C181.3 17.8632 181.153 17.5341 181.153 17.1506C181.153 16.7623 181.3 16.4332 181.594 16.1634C181.887 15.8887 182.238 15.7514 182.645 15.7514C183.057 15.7514 183.407 15.8887 183.696 16.1634C183.99 16.4332 184.136 16.7623 184.136 17.1506C184.136 17.5341 183.99 17.8632 183.696 18.1378C183.407 18.4077 183.057 18.5426 182.645 18.5426ZM195.189 22.9744L192.846 23.2301C192.779 22.9934 192.663 22.7708 192.498 22.5625C192.337 22.3542 192.119 22.1861 191.844 22.0582C191.569 21.9304 191.233 21.8665 190.836 21.8665C190.301 21.8665 189.851 21.9825 189.486 22.2145C189.126 22.4465 188.949 22.7472 188.953 23.1165C188.949 23.4337 189.065 23.6918 189.301 23.8906C189.543 24.0895 189.941 24.2528 190.495 24.3807L192.355 24.7784C193.388 25.0009 194.155 25.3537 194.657 25.8366C195.163 26.3196 195.419 26.9517 195.424 27.733C195.419 28.4195 195.218 29.0256 194.82 29.5511C194.427 30.072 193.88 30.4792 193.179 30.7727C192.479 31.0663 191.674 31.2131 190.765 31.2131C189.429 31.2131 188.355 30.9337 187.54 30.375C186.726 29.8116 186.24 29.0279 186.084 28.0241L188.591 27.7827C188.705 28.2751 188.946 28.6468 189.316 28.8977C189.685 29.1487 190.166 29.2741 190.757 29.2741C191.368 29.2741 191.858 29.1487 192.228 28.8977C192.602 28.6468 192.789 28.3366 192.789 27.9673C192.789 27.6548 192.668 27.3968 192.426 27.1932C192.19 26.9896 191.82 26.8333 191.319 26.7244L189.458 26.3338C188.411 26.116 187.637 25.7491 187.135 25.233C186.633 24.7121 186.385 24.054 186.39 23.2585C186.385 22.5862 186.567 22.0038 186.936 21.5114C187.31 21.0142 187.829 20.6307 188.492 20.3608C189.159 20.0862 189.929 19.9489 190.8 19.9489C192.078 19.9489 193.085 20.2211 193.819 20.7656C194.557 21.3101 195.014 22.0464 195.189 22.9744ZM197.402 31V29.3665L203.027 22.3139V22.2216H197.586V20.0909H206.173V21.8452L200.818 28.777V28.8693H206.358V31H197.402Z" fill="white"/>
</svg>
