<svg width="25" height="24" viewBox="0 0 25 24" fill="none" xmlns="http://www.w3.org/2000/svg">
<path d="M9.75 22L9.35 18.8C9.13333 18.7167 8.92916 18.6167 8.7375 18.5C8.54583 18.3833 8.35833 18.2583 8.175 18.125L5.2 19.375L2.45 14.625L5.025 12.675C5.00833 12.5583 5 12.4458 5 12.3375V11.6625C5 11.5542 5.00833 11.4417 5.025 11.325L2.45 9.375L5.2 4.625L8.175 5.875C8.35833 5.74167 8.55 5.61667 8.75 5.5C8.95 5.38333 9.15 5.28333 9.35 5.2L9.75 2H15.25L15.65 5.2C15.8667 5.28333 16.0708 5.38333 16.2625 5.5C16.4542 5.61667 16.6417 5.74167 16.825 5.875L19.8 4.625L22.55 9.375L19.975 11.325C19.9917 11.4417 20 11.5542 20 11.6625V12.3375C20 12.4458 19.9833 12.5583 19.95 12.675L22.525 14.625L19.775 19.375L16.825 18.125C16.6417 18.2583 16.45 18.3833 16.25 18.5C16.05 18.6167 15.85 18.7167 15.65 18.8L15.25 22H9.75ZM12.55 15.5C13.5167 15.5 14.3417 15.1583 15.025 14.475C15.7083 13.7917 16.05 12.9667 16.05 12C16.05 11.0333 15.7083 10.2083 15.025 9.525C14.3417 8.84167 13.5167 8.5 12.55 8.5C11.5667 8.5 10.7375 8.84167 10.0625 9.525C9.3875 10.2083 9.05 11.0333 9.05 12C9.05 12.9667 9.3875 13.7917 10.0625 14.475C10.7375 15.1583 11.5667 15.5 12.55 15.5Z" fill="#1D1B20"/>
</svg>
